Coordinates
version=1
nRows=19
nColumns=24
inDegrees=yes

Units are S.I. units (second, meters, Newtons, ...)
Angles are in degrees.

endheader
time	pelvis_tilt	pelvis_list	pelvis_rotation	pelvis_tx	pelvis_ty	pelvis_tz	hip_flexion_r	hip_adduction_r	hip_rotation_r	knee_angle_r	ankle_angle_r	subtalar_angle_r	mtp_angle_r	hip_flexion_l	hip_adduction_l	hip_rotation_l	knee_angle_l	ankle_angle_l	subtalar_angle_l	mtp_angle_l	lumbar_extension	lumbar_bending	lumbar_rotation
      3.67500000	     -9.42618944	    -10.79088835	     -1.63159875	     -1.46665091	     -0.02537138	     -0.28327112	     15.43329432	     14.85211088	      3.45749368	    -18.82154333	      4.95771180	     -0.81432759	      9.63492963	     24.77000774	    -15.66743778	     -3.18536387	    -63.94074262	     -2.98513429	      4.28879188	      5.97586905	      8.88742480	     11.23706909	     -7.10271084
      3.68000000	     -9.16953186	    -10.55128004	     -1.58999492	     -1.46031358	     -0.02417978	     -0.28276734	     14.30532739	     14.68646497	      3.99775390	    -18.15540833	      4.98045596	     -1.24318175	      9.02289124	     25.28839460	    -15.38544730	     -3.34093059	    -63.45471138	     -2.37928175	      4.19405198	      5.81225519	      8.62878292	     10.97154889	     -6.92121638
      3.68500000	     -8.96144004	    -10.27133903	     -1.54011203	     -1.45401774	     -0.02305514	     -0.28228286	     13.26467925	     14.45590361	      4.38854493	    -17.52822578	      4.99689703	     -1.58939260	      8.47855053	     25.84171117	    -15.04652250	     -3.49284736	    -62.88571224	     -1.82629583	      4.12439297	      5.63593559	      8.42285238	     10.65624022	     -6.74118586
      3.69000000	     -8.76382962	     -9.99450398	     -1.49761195	     -1.44774292	     -0.02200591	     -0.28178926	     12.25234925	     14.21878091	      4.71645346	    -16.92138252	      5.00238075	     -1.88587678	      7.99705501	     26.38154717	    -14.71311717	     -3.65509009	    -62.24389813	     -1.26666778	      4.09348139	      5.45716638	      8.22449948	     10.34228749	     -6.56862866
      3.69500000	     -8.58766976	     -9.72593943	     -1.45964625	     -1.44150229	     -0.02105300	     -0.28132525	     11.28438663	     13.97724765	      4.98181467	    -16.34103283	      5.00518003	     -2.12244288	      7.58774736	     26.92469612	    -14.38449233	     -3.81948651	    -61.53599930	     -0.70154641	      4.08336304	      5.26993406	      8.04534041	     10.04377487	     -6.40971417
      3.70000000	     -8.37675550	     -9.49752497	     -1.42391850	     -1.43525358	     -0.02014832	     -0.28087311	     10.25247441	     13.77065860	      5.29013012	    -15.71288295	      5.02368989	     -2.32526750	      7.15820566	     27.42196058	    -14.10657912	     -3.99187583	    -60.79108202	     -0.16621234	      4.10609335	      4.95548910	      7.82802199	      9.79600476	     -6.23234802
      3.70500000	     -8.20633446	     -9.26360853	     -1.39319778	     -1.42904271	     -0.01935540	     -0.28042906	      9.30049230	     13.54674563	      5.49053855	    -15.13660950	      5.04146053	     -2.45651610	      6.81403305	     27.93900319	    -13.81885411	     -4.16611662	    -59.97607333	      0.37438058	      4.13827603	      4.62060256	      7.64984669	      9.54001302	     -6.06932121
      3.71000000	     -8.04119158	     -9.03812946	     -1.36875242	     -1.42284992	     -0.01863696	     -0.27998842	      8.37338483	     13.32375041	      5.63263151	    -14.58599869	      5.05029053	     -2.53161622	      6.54638193	     28.43477848	    -13.53934314	     -4.34455990	    -59.09284511	      0.90928034	      4.17103610	      4.25377859	      7.47436854	      9.29178780	     -5.90462450
      3.71500000	     -7.87069626	     -8.83618440	     -1.34079396	     -1.41667540	     -0.01799937	     -0.27959321	      7.43997435	     13.11416401	      5.77106668	    -14.02871294	      5.07204499	     -2.55025819	      6.33438582	     28.91578857	    -13.28391536	     -4.52417773	    -58.17102797	      1.42418682	      4.22066399	      3.78589717	      7.29042094	      9.07699600	     -5.73283393
      3.72000000	     -7.71061794	     -8.63454457	     -1.32566803	     -1.41052220	     -0.01743944	     -0.27920897	      6.53868975	     12.89978836	      5.85928844	    -13.50220175	      5.09648578	     -2.52948785	      6.18609173	     29.37764116	    -13.02861554	     -4.71391981	    -57.18397054	      1.93861249	      4.26817018	      3.24991913	      7.11218354	      8.87119748	     -5.55967880
      3.72500000	     -7.57376421	     -8.43356520	     -1.32011520	     -1.40439755	     -0.01696501	     -0.27883633	      5.69378504	     12.68175599	      5.89659381	    -13.02600525	      5.10807316	     -2.47219768	      6.10014264	     29.83410294	    -12.77407237	     -4.91310154	    -56.12531291	      2.44553225	      4.30678151	      2.71212504	      6.95422813	      8.66475415	     -5.38947703
      3.73000000	     -7.42054593	     -8.25408074	     -1.30617753	     -1.39828482	     -0.01657414	     -0.27851774	      4.82772046	     12.47694574	      5.95806819	    -12.54137088	      5.15699085	     -2.36629823	      6.07758650	     30.26655771	    -12.53839629	     -5.10995920	    -55.04216465	      2.95146553	      4.37500272	      2.02914110	      6.77614106	      8.49128278	     -5.19824773
      3.73500000	     -7.30974513	     -8.06031802	     -1.31471959	     -1.39220733	     -0.01626049	     -0.27818937	      4.05106321	     12.25897895	      5.96321158	    -12.13021950	      5.17783115	     -2.25483452	      6.08602507	     30.70302438	    -12.29527883	     -5.33913832	    -53.87061533	      3.42714364	      4.41661828	      1.40484092	      6.63521601	      8.30335045	     -5.01751288
      3.74000000	     -7.18194219	     -7.88098439	     -1.32459287	     -1.38613084	     -0.01600626	     -0.27789635	      3.26259430	     12.05078525	      5.98458812	    -11.73222612	      5.22299849	     -2.10903665	      6.14598233	     31.09680678	    -12.06020477	     -5.55274825	    -52.65294974	      3.92719928	      4.51080314	      0.67193017	      6.47688166	      8.13642231	     -4.81648245
      3.74500000	     -7.08432168	     -7.69587870	     -1.33956710	     -1.38009824	     -0.01584526	     -0.27765202	      2.53559548	     11.83293873	      5.99659924	    -11.38087356	      5.26908081	     -1.96521423	      6.22772438	     31.50079089	    -11.82286473	     -5.80415649	    -51.37745119	      4.40139849	      4.59885105	     -0.04773228	      6.33996291	      7.97370574	     -4.61442183
      3.75000000	     -6.98579508	     -7.51805183	     -1.35620898	     -1.37408312	     -0.01573725	     -0.27743659	      1.82743642	     11.61995890	      6.01144279	    -11.06446729	      5.31363818	     -1.80087308	      6.33993688	     31.87371874	    -11.58382320	     -6.03690389	    -50.04292478	      4.89455762	      4.75314651	     -0.81896632	      6.19806949	      7.82145591	     -4.39673499
      3.75500000	     -7.04650882	     -7.38216931	     -1.35317532	     -1.36812915	     -0.01589469	     -0.27723622	      1.33145198	     11.46476460	      5.99350321	    -10.81336023	      5.36206237	     -1.73968925	      6.36625662	     32.42088899	    -11.36393029	     -6.16818481	    -48.64126558	      5.22725493	      4.93949062	     -1.03715987	      6.22485756	      7.70815845	     -4.26946664
      3.76000000	     -6.86654996	     -7.15461463	     -1.43967016	     -1.36209997	     -0.01573494	     -0.27705895	      0.55753264	     11.18504921	      6.06791676	    -10.54775311	      5.43746083	     -1.49630826	      6.52163385	     32.59725051	    -11.11164848	     -6.56464997	    -47.14998925	      5.65925028	      5.06164938	     -1.90745528	      5.97895429	      7.53267499	     -3.94710639
      3.76500000	     -6.78260106	     -6.97387318	     -1.47051041	     -1.35613578	     -0.01578940	     -0.27696960	     -0.06766081	     10.95844321	      6.05573834	    -10.34617797	      5.49408699	     -1.31195788	      6.72946750	     32.89053274	    -10.84903457	     -6.78690138	    -45.65118403	      6.22529751	      5.42172904	     -2.92370226	      5.83619589	      7.39957414	     -3.68688588
